<?xml version="1.0" encoding="utf-8"?>
<!-- Generator: Adobe Illustrator 27.5.0, SVG Export Plug-In . SVG Version: 6.00 Build 0)  -->
<svg version="1.1" xmlns="http://www.w3.org/2000/svg" xmlns:xlink="http://www.w3.org/1999/xlink" x="0px" y="0px"
	 viewBox="0 0 500 500" style="enable-background:new 0 0 500 500;" xml:space="preserve">
<g id="BACKGROUND">
</g>
<g id="OBJECTS">
	<g>
		<path style="fill:#2C3066;" d="M276.71,317.538c0,4.583-10.318,8.298-23.047,8.298s-23.047-3.715-23.047-8.298
			s10.318-8.297,23.047-8.297S276.71,312.956,276.71,317.538z"/>
		
			<ellipse transform="matrix(0.1112 -0.9938 0.9938 0.1112 100.6396 378.4814)" style="fill:#FA6C92;" cx="261.912" cy="132.977" rx="25.138" ry="18.484"/>
		<path style="fill:#FA6C92;" d="M262.013,182.187c0.612,9.206-3.521,16.499-3.521,16.499c0-1.91-1.296-7.776-1.296-7.776
			c-45.812-130.937-211.448,9.539-2.739,128.217C427.142,203.14,303.756,119.414,262.013,182.187z"/>
		<path style="fill:#C43B66;" d="M319.613,262.211c-66.32,46.499-105.08,18.086-130.533-24.467
			c-16.083-26.889-13.855-73.373-12.048-92.868c-38.136,23.024-48.57,102.607,77.425,174.252
			C284.45,298.982,305.504,279.812,319.613,262.211z"/>
		<path style="fill:#FFFFFF;" d="M326.369,192.281c-3.658,0.474-7.148,1.014-10.536,1.612c-1.758,0.305-3.381-0.863-3.679-2.673
			c-0.559-3.486-1.169-7.086-1.885-10.852c-0.367-1.963-2.248-3.23-4.126-2.684c-2.326,0.669-4.622,1.418-6.903,2.223
			c-1.843,0.663-2.924,2.699-2.441,4.449c0.919,3.39,1.793,6.648,2.626,9.827c0.427,1.663-0.593,3.303-2.266,3.706
			c-3.227,0.789-6.469,1.618-9.787,2.474c-1.735,0.453-2.664,1.969-2.049,3.381c0.752,1.76,1.492,3.523,2.202,5.295
			c0.581,1.425,2.297,2.322,3.85,2.011c2.997-0.606,5.962-1.169,8.928-1.692c1.55-0.277,3.104,0.789,3.456,2.36
			c0.684,3.007,1.331,6.002,1.933,9.009c0.315,1.562,1.749,2.73,3.229,2.631c1.834-0.129,3.674-0.229,5.517-0.308
			c1.487-0.057,2.444-1.468,2.157-3.157c-0.555-3.232-1.065-6.439-1.56-9.669c-0.263-1.676,0.816-3.217,2.426-3.417
			c3.08-0.375,6.218-0.713,9.442-1.024c1.667-0.158,3.037-1.765,3.043-3.614c-0.008-2.287-0.008-4.59-0.027-6.913
			C329.915,193.383,328.283,192.032,326.369,192.281z"/>
	</g>
</g>
<g id="TEXTS">
	<path id="SVGID_x5F_1_x5F_" style="fill:none;" d="M105.063,255.472c0,62.779,65.433,113.671,146.149,113.671
		c80.716,0,146.149-50.892,146.149-113.671"/>
	<text>	<textPath  xlink:href="#SVGID_x5F_1_x5F_" startOffset="0.006%">
<tspan  style="fill:#2C3066; font-family:'Lexend-Bold'; font-size:31.5557px;">Doctor Plus</tspan>	</textPath>
</text>
	<path id="SVGID_x5F_00000027580597905834245960000000129927433975238287_x5F_" style="fill:none;" d="M87.55,266.574
		c0,70.301,73.274,127.292,163.661,127.292c90.387,0,163.661-56.991,163.661-127.292"/>
	<text>	<textPath  xlink:href="#SVGID_x5F_00000027580597905834245960000000129927433975238287_x5F_" startOffset="0.006%">
<tspan  style="fill:#2C3066; font-family:'Lexend-Medium'; font-size:12.856px; letter-spacing:300;">YOUR SLOGAN</tspan>	</textPath>
</text>
</g>
</svg>
